<mxfile host="app.diagrams.net" agent="Mozilla/5.0 (Windows NT 10.0; Win64; x64) AppleWebKit/537.36 (KHTML, like Gecko) Chrome/131.0.0.0 Safari/537.36 Edg/131.0.0.0" version="26.0.1">
  <diagram name="PÃ¡gina-1" id="192jTI-AJkEi8P_PW2te">
    <mxGraphModel dx="2589" dy="1185" grid="0" gridSize="10" guides="1" tooltips="1" connect="1" arrows="1" fold="1" page="0" pageScale="1" pageWidth="827" pageHeight="1169" math="0" shadow="0">
      <root>
        <mxCell id="0" />
        <mxCell id="1" parent="0" />
        <mxCell id="D9OjnX64qDdhUDEdyKDI-2" value="Clientes" style="swimlane;fontStyle=0;childLayout=stackLayout;horizontal=1;startSize=30;horizontalStack=0;resizeParent=1;resizeParentMax=0;resizeLast=0;collapsible=1;marginBottom=0;whiteSpace=wrap;html=1;" parent="1" vertex="1">
          <mxGeometry x="-1168" y="-314" width="140" height="180" as="geometry" />
        </mxCell>
        <mxCell id="D9OjnX64qDdhUDEdyKDI-3" value="Numero" style="text;strokeColor=none;fillColor=none;align=left;verticalAlign=middle;spacingLeft=4;spacingRight=4;overflow=hidden;points=[[0,0.5],[1,0.5]];portConstraint=eastwest;rotatable=0;whiteSpace=wrap;html=1;" parent="D9OjnX64qDdhUDEdyKDI-2" vertex="1">
          <mxGeometry y="30" width="140" height="30" as="geometry" />
        </mxCell>
        <mxCell id="D9OjnX64qDdhUDEdyKDI-4" value="Conversacion" style="text;strokeColor=none;fillColor=none;align=left;verticalAlign=middle;spacingLeft=4;spacingRight=4;overflow=hidden;points=[[0,0.5],[1,0.5]];portConstraint=eastwest;rotatable=0;whiteSpace=wrap;html=1;" parent="D9OjnX64qDdhUDEdyKDI-2" vertex="1">
          <mxGeometry y="60" width="140" height="30" as="geometry" />
        </mxCell>
        <mxCell id="D9OjnX64qDdhUDEdyKDI-6" value="Pedido" style="text;strokeColor=none;fillColor=none;align=left;verticalAlign=middle;spacingLeft=4;spacingRight=4;overflow=hidden;points=[[0,0.5],[1,0.5]];portConstraint=eastwest;rotatable=0;whiteSpace=wrap;html=1;" parent="D9OjnX64qDdhUDEdyKDI-2" vertex="1">
          <mxGeometry y="90" width="140" height="30" as="geometry" />
        </mxCell>
        <mxCell id="D9OjnX64qDdhUDEdyKDI-7" value="Pago" style="text;strokeColor=none;fillColor=none;align=left;verticalAlign=middle;spacingLeft=4;spacingRight=4;overflow=hidden;points=[[0,0.5],[1,0.5]];portConstraint=eastwest;rotatable=0;whiteSpace=wrap;html=1;" parent="D9OjnX64qDdhUDEdyKDI-2" vertex="1">
          <mxGeometry y="120" width="140" height="30" as="geometry" />
        </mxCell>
        <mxCell id="D9OjnX64qDdhUDEdyKDI-5" value="Estado" style="text;strokeColor=none;fillColor=none;align=left;verticalAlign=middle;spacingLeft=4;spacingRight=4;overflow=hidden;points=[[0,0.5],[1,0.5]];portConstraint=eastwest;rotatable=0;whiteSpace=wrap;html=1;" parent="D9OjnX64qDdhUDEdyKDI-2" vertex="1">
          <mxGeometry y="150" width="140" height="30" as="geometry" />
        </mxCell>
        <mxCell id="D9OjnX64qDdhUDEdyKDI-8" value="Domicilario" style="swimlane;fontStyle=0;childLayout=stackLayout;horizontal=1;startSize=30;horizontalStack=0;resizeParent=1;resizeParentMax=0;resizeLast=0;collapsible=1;marginBottom=0;whiteSpace=wrap;html=1;" parent="1" vertex="1">
          <mxGeometry x="-586" y="-14" width="140" height="180" as="geometry" />
        </mxCell>
        <mxCell id="D9OjnX64qDdhUDEdyKDI-9" value="Nombre" style="text;strokeColor=none;fillColor=none;align=left;verticalAlign=middle;spacingLeft=4;spacingRight=4;overflow=hidden;points=[[0,0.5],[1,0.5]];portConstraint=eastwest;rotatable=0;whiteSpace=wrap;html=1;" parent="D9OjnX64qDdhUDEdyKDI-8" vertex="1">
          <mxGeometry y="30" width="140" height="30" as="geometry" />
        </mxCell>
        <mxCell id="D9OjnX64qDdhUDEdyKDI-10" value="Whatsapp" style="text;strokeColor=none;fillColor=none;align=left;verticalAlign=middle;spacingLeft=4;spacingRight=4;overflow=hidden;points=[[0,0.5],[1,0.5]];portConstraint=eastwest;rotatable=0;whiteSpace=wrap;html=1;" parent="D9OjnX64qDdhUDEdyKDI-8" vertex="1">
          <mxGeometry y="60" width="140" height="30" as="geometry" />
        </mxCell>
        <mxCell id="D9OjnX64qDdhUDEdyKDI-11" value="Conversacion" style="text;strokeColor=none;fillColor=none;align=left;verticalAlign=middle;spacingLeft=4;spacingRight=4;overflow=hidden;points=[[0,0.5],[1,0.5]];portConstraint=eastwest;rotatable=0;whiteSpace=wrap;html=1;" parent="D9OjnX64qDdhUDEdyKDI-8" vertex="1">
          <mxGeometry y="90" width="140" height="30" as="geometry" />
        </mxCell>
        <mxCell id="D9OjnX64qDdhUDEdyKDI-12" value="Pago" style="text;strokeColor=none;fillColor=none;align=left;verticalAlign=middle;spacingLeft=4;spacingRight=4;overflow=hidden;points=[[0,0.5],[1,0.5]];portConstraint=eastwest;rotatable=0;whiteSpace=wrap;html=1;" parent="D9OjnX64qDdhUDEdyKDI-8" vertex="1">
          <mxGeometry y="120" width="140" height="30" as="geometry" />
        </mxCell>
        <mxCell id="D9OjnX64qDdhUDEdyKDI-13" value="Estado" style="text;strokeColor=none;fillColor=none;align=left;verticalAlign=middle;spacingLeft=4;spacingRight=4;overflow=hidden;points=[[0,0.5],[1,0.5]];portConstraint=eastwest;rotatable=0;whiteSpace=wrap;html=1;" parent="D9OjnX64qDdhUDEdyKDI-8" vertex="1">
          <mxGeometry y="150" width="140" height="30" as="geometry" />
        </mxCell>
        <mxCell id="D9OjnX64qDdhUDEdyKDI-14" value="Pedido" style="swimlane;fontStyle=0;childLayout=stackLayout;horizontal=1;startSize=30;horizontalStack=0;resizeParent=1;resizeParentMax=0;resizeLast=0;collapsible=1;marginBottom=0;whiteSpace=wrap;html=1;" parent="1" vertex="1">
          <mxGeometry x="-884" y="-224" width="140" height="270" as="geometry" />
        </mxCell>
        <mxCell id="D9OjnX64qDdhUDEdyKDI-15" value="Id" style="text;strokeColor=none;fillColor=none;align=left;verticalAlign=middle;spacingLeft=4;spacingRight=4;overflow=hidden;points=[[0,0.5],[1,0.5]];portConstraint=eastwest;rotatable=0;whiteSpace=wrap;html=1;" parent="D9OjnX64qDdhUDEdyKDI-14" vertex="1">
          <mxGeometry y="30" width="140" height="30" as="geometry" />
        </mxCell>
        <mxCell id="D9OjnX64qDdhUDEdyKDI-16" value="Productos" style="text;strokeColor=none;fillColor=none;align=left;verticalAlign=middle;spacingLeft=4;spacingRight=4;overflow=hidden;points=[[0,0.5],[1,0.5]];portConstraint=eastwest;rotatable=0;whiteSpace=wrap;html=1;" parent="D9OjnX64qDdhUDEdyKDI-14" vertex="1">
          <mxGeometry y="60" width="140" height="30" as="geometry" />
        </mxCell>
        <mxCell id="D9OjnX64qDdhUDEdyKDI-17" value="Comentario" style="text;strokeColor=none;fillColor=none;align=left;verticalAlign=middle;spacingLeft=4;spacingRight=4;overflow=hidden;points=[[0,0.5],[1,0.5]];portConstraint=eastwest;rotatable=0;whiteSpace=wrap;html=1;" parent="D9OjnX64qDdhUDEdyKDI-14" vertex="1">
          <mxGeometry y="90" width="140" height="30" as="geometry" />
        </mxCell>
        <mxCell id="D9OjnX64qDdhUDEdyKDI-18" value="Pago" style="text;strokeColor=none;fillColor=none;align=left;verticalAlign=middle;spacingLeft=4;spacingRight=4;overflow=hidden;points=[[0,0.5],[1,0.5]];portConstraint=eastwest;rotatable=0;whiteSpace=wrap;html=1;" parent="D9OjnX64qDdhUDEdyKDI-14" vertex="1">
          <mxGeometry y="120" width="140" height="30" as="geometry" />
        </mxCell>
        <mxCell id="D9OjnX64qDdhUDEdyKDI-20" value="Estado" style="text;strokeColor=none;fillColor=none;align=left;verticalAlign=middle;spacingLeft=4;spacingRight=4;overflow=hidden;points=[[0,0.5],[1,0.5]];portConstraint=eastwest;rotatable=0;whiteSpace=wrap;html=1;" parent="D9OjnX64qDdhUDEdyKDI-14" vertex="1">
          <mxGeometry y="150" width="140" height="30" as="geometry" />
        </mxCell>
        <mxCell id="D9OjnX64qDdhUDEdyKDI-21" value="Direccion" style="text;strokeColor=none;fillColor=none;align=left;verticalAlign=middle;spacingLeft=4;spacingRight=4;overflow=hidden;points=[[0,0.5],[1,0.5]];portConstraint=eastwest;rotatable=0;whiteSpace=wrap;html=1;" parent="D9OjnX64qDdhUDEdyKDI-14" vertex="1">
          <mxGeometry y="180" width="140" height="30" as="geometry" />
        </mxCell>
        <mxCell id="D9OjnX64qDdhUDEdyKDI-22" value="Domiciliario" style="text;strokeColor=none;fillColor=none;align=left;verticalAlign=middle;spacingLeft=4;spacingRight=4;overflow=hidden;points=[[0,0.5],[1,0.5]];portConstraint=eastwest;rotatable=0;whiteSpace=wrap;html=1;" parent="D9OjnX64qDdhUDEdyKDI-14" vertex="1">
          <mxGeometry y="210" width="140" height="30" as="geometry" />
        </mxCell>
        <mxCell id="D9OjnX64qDdhUDEdyKDI-19" value="Total" style="text;strokeColor=none;fillColor=none;align=left;verticalAlign=middle;spacingLeft=4;spacingRight=4;overflow=hidden;points=[[0,0.5],[1,0.5]];portConstraint=eastwest;rotatable=0;whiteSpace=wrap;html=1;" parent="D9OjnX64qDdhUDEdyKDI-14" vertex="1">
          <mxGeometry y="240" width="140" height="30" as="geometry" />
        </mxCell>
        <mxCell id="D9OjnX64qDdhUDEdyKDI-23" style="edgeStyle=none;curved=1;rounded=0;orthogonalLoop=1;jettySize=auto;html=1;entryX=-0.004;entryY=0.074;entryDx=0;entryDy=0;entryPerimeter=0;fontSize=12;startSize=8;endSize=8;exitX=0.993;exitY=0.733;exitDx=0;exitDy=0;exitPerimeter=0;" parent="1" source="D9OjnX64qDdhUDEdyKDI-6" target="D9OjnX64qDdhUDEdyKDI-14" edge="1">
          <mxGeometry relative="1" as="geometry" />
        </mxCell>
        <mxCell id="D9OjnX64qDdhUDEdyKDI-24" style="edgeStyle=none;curved=1;rounded=0;orthogonalLoop=1;jettySize=auto;html=1;entryX=0.014;entryY=0.089;entryDx=0;entryDy=0;entryPerimeter=0;fontSize=12;startSize=8;endSize=8;exitX=1;exitY=0.5;exitDx=0;exitDy=0;" parent="1" source="D9OjnX64qDdhUDEdyKDI-22" target="D9OjnX64qDdhUDEdyKDI-8" edge="1">
          <mxGeometry relative="1" as="geometry" />
        </mxCell>
        <mxCell id="D9OjnX64qDdhUDEdyKDI-28" value="" style="edgeStyle=none;curved=1;rounded=0;orthogonalLoop=1;jettySize=auto;html=1;fontSize=12;startSize=8;endSize=8;" parent="1" source="D9OjnX64qDdhUDEdyKDI-26" target="D9OjnX64qDdhUDEdyKDI-27" edge="1">
          <mxGeometry relative="1" as="geometry" />
        </mxCell>
        <mxCell id="D9OjnX64qDdhUDEdyKDI-31" style="edgeStyle=none;curved=1;rounded=0;orthogonalLoop=1;jettySize=auto;html=1;entryX=0;entryY=0.5;entryDx=0;entryDy=0;fontSize=12;startSize=8;endSize=8;" parent="1" source="D9OjnX64qDdhUDEdyKDI-26" target="D9OjnX64qDdhUDEdyKDI-29" edge="1">
          <mxGeometry relative="1" as="geometry" />
        </mxCell>
        <mxCell id="D9OjnX64qDdhUDEdyKDI-26" value="Cliente" style="rounded=1;whiteSpace=wrap;html=1;" parent="1" vertex="1">
          <mxGeometry x="-102" y="-139" width="120" height="60" as="geometry" />
        </mxCell>
        <mxCell id="D9OjnX64qDdhUDEdyKDI-34" value="" style="edgeStyle=none;curved=1;rounded=0;orthogonalLoop=1;jettySize=auto;html=1;fontSize=12;startSize=8;endSize=8;" parent="1" source="D9OjnX64qDdhUDEdyKDI-27" target="D9OjnX64qDdhUDEdyKDI-30" edge="1">
          <mxGeometry relative="1" as="geometry">
            <mxPoint x="350" y="-251.25" as="targetPoint" />
          </mxGeometry>
        </mxCell>
        <mxCell id="D9OjnX64qDdhUDEdyKDI-36" style="edgeStyle=none;curved=1;rounded=0;orthogonalLoop=1;jettySize=auto;html=1;fontSize=12;startSize=8;endSize=8;" parent="1" source="D9OjnX64qDdhUDEdyKDI-27" target="D9OjnX64qDdhUDEdyKDI-29" edge="1">
          <mxGeometry relative="1" as="geometry">
            <mxPoint x="350" y="-189" as="targetPoint" />
          </mxGeometry>
        </mxCell>
        <mxCell id="D9OjnX64qDdhUDEdyKDI-27" value="Saludo" style="rounded=1;whiteSpace=wrap;html=1;" parent="1" vertex="1">
          <mxGeometry x="120" y="-224" width="120" height="60" as="geometry" />
        </mxCell>
        <mxCell id="D9OjnX64qDdhUDEdyKDI-38" value="" style="edgeStyle=none;curved=1;rounded=0;orthogonalLoop=1;jettySize=auto;html=1;fontSize=12;startSize=8;endSize=8;" parent="1" source="D9OjnX64qDdhUDEdyKDI-29" target="D9OjnX64qDdhUDEdyKDI-37" edge="1">
          <mxGeometry relative="1" as="geometry" />
        </mxCell>
        <mxCell id="D9OjnX64qDdhUDEdyKDI-29" value="Pedido" style="rounded=1;whiteSpace=wrap;html=1;" parent="1" vertex="1">
          <mxGeometry x="110" y="-107" width="120" height="60" as="geometry" />
        </mxCell>
        <mxCell id="D9OjnX64qDdhUDEdyKDI-30" value="Pregunta" style="rounded=1;whiteSpace=wrap;html=1;" parent="1" vertex="1">
          <mxGeometry x="-10" y="-374" width="120" height="60" as="geometry" />
        </mxCell>
        <mxCell id="D9OjnX64qDdhUDEdyKDI-32" style="edgeStyle=none;curved=0;rounded=0;orthogonalLoop=1;jettySize=auto;html=1;fontSize=12;startSize=8;endSize=8;strokeColor=default;" parent="1" source="D9OjnX64qDdhUDEdyKDI-26" target="D9OjnX64qDdhUDEdyKDI-30" edge="1">
          <mxGeometry relative="1" as="geometry" />
        </mxCell>
        <mxCell id="D9OjnX64qDdhUDEdyKDI-40" value="" style="edgeStyle=none;curved=1;rounded=0;orthogonalLoop=1;jettySize=auto;html=1;fontSize=12;startSize=8;endSize=8;" parent="1" source="D9OjnX64qDdhUDEdyKDI-37" target="D9OjnX64qDdhUDEdyKDI-39" edge="1">
          <mxGeometry relative="1" as="geometry" />
        </mxCell>
        <mxCell id="D9OjnX64qDdhUDEdyKDI-41" value="No" style="edgeLabel;html=1;align=center;verticalAlign=middle;resizable=0;points=[];fontSize=12;" parent="D9OjnX64qDdhUDEdyKDI-40" vertex="1" connectable="0">
          <mxGeometry x="-0.2029" y="-1" relative="1" as="geometry">
            <mxPoint as="offset" />
          </mxGeometry>
        </mxCell>
        <mxCell id="D9OjnX64qDdhUDEdyKDI-44" value="" style="edgeStyle=none;curved=1;rounded=0;orthogonalLoop=1;jettySize=auto;html=1;fontSize=12;startSize=8;endSize=8;" parent="1" source="D9OjnX64qDdhUDEdyKDI-37" target="D9OjnX64qDdhUDEdyKDI-43" edge="1">
          <mxGeometry relative="1" as="geometry" />
        </mxCell>
        <mxCell id="D9OjnX64qDdhUDEdyKDI-45" value="Si" style="edgeLabel;html=1;align=center;verticalAlign=middle;resizable=0;points=[];fontSize=12;" parent="D9OjnX64qDdhUDEdyKDI-44" vertex="1" connectable="0">
          <mxGeometry x="-0.216" relative="1" as="geometry">
            <mxPoint as="offset" />
          </mxGeometry>
        </mxCell>
        <mxCell id="D9OjnX64qDdhUDEdyKDI-37" value="Tiene la info completa del pedido?" style="rhombus;whiteSpace=wrap;html=1;rounded=1;" parent="1" vertex="1">
          <mxGeometry x="126" y="3" width="104" height="80" as="geometry" />
        </mxCell>
        <mxCell id="D9OjnX64qDdhUDEdyKDI-39" value="Pedir Los datos" style="whiteSpace=wrap;html=1;rounded=1;" parent="1" vertex="1">
          <mxGeometry x="342" y="13" width="120" height="60" as="geometry" />
        </mxCell>
        <mxCell id="D9OjnX64qDdhUDEdyKDI-42" style="edgeStyle=none;curved=1;rounded=0;orthogonalLoop=1;jettySize=auto;html=1;entryX=0.578;entryY=0.883;entryDx=0;entryDy=0;entryPerimeter=0;fontSize=12;startSize=8;endSize=8;" parent="1" source="D9OjnX64qDdhUDEdyKDI-39" target="D9OjnX64qDdhUDEdyKDI-37" edge="1">
          <mxGeometry relative="1" as="geometry">
            <Array as="points">
              <mxPoint x="386" y="110" />
            </Array>
          </mxGeometry>
        </mxCell>
        <mxCell id="D9OjnX64qDdhUDEdyKDI-47" value="" style="edgeStyle=none;curved=1;rounded=0;orthogonalLoop=1;jettySize=auto;html=1;fontSize=12;startSize=8;endSize=8;" parent="1" source="D9OjnX64qDdhUDEdyKDI-43" target="D9OjnX64qDdhUDEdyKDI-46" edge="1">
          <mxGeometry relative="1" as="geometry" />
        </mxCell>
        <mxCell id="D9OjnX64qDdhUDEdyKDI-43" value="Calcular Total" style="whiteSpace=wrap;html=1;rounded=1;" parent="1" vertex="1">
          <mxGeometry x="118" y="177" width="120" height="60" as="geometry" />
        </mxCell>
        <mxCell id="D9OjnX64qDdhUDEdyKDI-49" value="" style="edgeStyle=none;curved=1;rounded=0;orthogonalLoop=1;jettySize=auto;html=1;fontSize=12;startSize=8;endSize=8;" parent="1" source="D9OjnX64qDdhUDEdyKDI-46" target="D9OjnX64qDdhUDEdyKDI-48" edge="1">
          <mxGeometry relative="1" as="geometry" />
        </mxCell>
        <mxCell id="D9OjnX64qDdhUDEdyKDI-46" value="Escoger Metodo de pago" style="whiteSpace=wrap;html=1;rounded=1;" parent="1" vertex="1">
          <mxGeometry x="120" y="287" width="120" height="60" as="geometry" />
        </mxCell>
        <mxCell id="D9OjnX64qDdhUDEdyKDI-51" style="edgeStyle=none;curved=1;rounded=0;orthogonalLoop=1;jettySize=auto;html=1;fontSize=12;startSize=8;endSize=8;" parent="1" source="D9OjnX64qDdhUDEdyKDI-48" target="D9OjnX64qDdhUDEdyKDI-50" edge="1">
          <mxGeometry relative="1" as="geometry" />
        </mxCell>
        <mxCell id="D9OjnX64qDdhUDEdyKDI-48" value="Enviar modo de pago con total" style="whiteSpace=wrap;html=1;rounded=1;" parent="1" vertex="1">
          <mxGeometry x="120" y="402" width="120" height="60" as="geometry" />
        </mxCell>
        <mxCell id="D9OjnX64qDdhUDEdyKDI-53" value="" style="edgeStyle=none;curved=1;rounded=0;orthogonalLoop=1;jettySize=auto;html=1;fontSize=12;startSize=8;endSize=8;entryX=0;entryY=0.5;entryDx=0;entryDy=0;" parent="1" source="D9OjnX64qDdhUDEdyKDI-50" target="D9OjnX64qDdhUDEdyKDI-52" edge="1">
          <mxGeometry relative="1" as="geometry" />
        </mxCell>
        <mxCell id="D9OjnX64qDdhUDEdyKDI-55" style="edgeStyle=none;curved=1;rounded=0;orthogonalLoop=1;jettySize=auto;html=1;exitX=1;exitY=1;exitDx=0;exitDy=0;entryX=0;entryY=0.5;entryDx=0;entryDy=0;fontSize=12;startSize=8;endSize=8;" parent="1" source="D9OjnX64qDdhUDEdyKDI-50" target="D9OjnX64qDdhUDEdyKDI-54" edge="1">
          <mxGeometry relative="1" as="geometry" />
        </mxCell>
        <mxCell id="D9OjnX64qDdhUDEdyKDI-50" value="Pago correcto" style="rhombus;whiteSpace=wrap;html=1;rounded=1;" parent="1" vertex="1">
          <mxGeometry x="345" y="392" width="104" height="80" as="geometry" />
        </mxCell>
        <mxCell id="D9OjnX64qDdhUDEdyKDI-57" value="" style="edgeStyle=none;curved=1;rounded=0;orthogonalLoop=1;jettySize=auto;html=1;fontSize=12;startSize=8;endSize=8;" parent="1" source="D9OjnX64qDdhUDEdyKDI-52" target="D9OjnX64qDdhUDEdyKDI-56" edge="1">
          <mxGeometry relative="1" as="geometry" />
        </mxCell>
        <mxCell id="D9OjnX64qDdhUDEdyKDI-52" value="Enviar a Cocina" style="whiteSpace=wrap;html=1;rounded=1;" parent="1" vertex="1">
          <mxGeometry x="479" y="293" width="120" height="60" as="geometry" />
        </mxCell>
        <mxCell id="D9OjnX64qDdhUDEdyKDI-54" value="Error" style="whiteSpace=wrap;html=1;rounded=1;" parent="1" vertex="1">
          <mxGeometry x="487" y="437" width="120" height="60" as="geometry" />
        </mxCell>
        <mxCell id="D9OjnX64qDdhUDEdyKDI-59" value="" style="edgeStyle=none;curved=1;rounded=0;orthogonalLoop=1;jettySize=auto;html=1;fontSize=12;startSize=8;endSize=8;" parent="1" source="D9OjnX64qDdhUDEdyKDI-56" target="D9OjnX64qDdhUDEdyKDI-58" edge="1">
          <mxGeometry relative="1" as="geometry" />
        </mxCell>
        <mxCell id="D9OjnX64qDdhUDEdyKDI-56" value="Confirmar pedido" style="whiteSpace=wrap;html=1;rounded=1;" parent="1" vertex="1">
          <mxGeometry x="652" y="296" width="120" height="60" as="geometry" />
        </mxCell>
        <mxCell id="mDPuCYkEVA2emeVpbOJZ-2" value="" style="edgeStyle=none;curved=1;rounded=0;orthogonalLoop=1;jettySize=auto;html=1;fontSize=12;startSize=8;endSize=8;" edge="1" parent="1" source="D9OjnX64qDdhUDEdyKDI-58" target="mDPuCYkEVA2emeVpbOJZ-1">
          <mxGeometry relative="1" as="geometry" />
        </mxCell>
        <mxCell id="D9OjnX64qDdhUDEdyKDI-58" value="Enviar al domiciliario" style="whiteSpace=wrap;html=1;rounded=1;" parent="1" vertex="1">
          <mxGeometry x="832" y="296" width="120" height="60" as="geometry" />
        </mxCell>
        <mxCell id="mDPuCYkEVA2emeVpbOJZ-1" value="Avisar al modelo" style="whiteSpace=wrap;html=1;rounded=1;" vertex="1" parent="1">
          <mxGeometry x="832" y="92" width="120" height="60" as="geometry" />
        </mxCell>
      </root>
    </mxGraphModel>
  </diagram>
</mxfile>
